<svg id="visual" viewBox="0 0 900 600" width="900" height="600" xmlns="http://www.w3.org/2000/svg" xmlns:xlink="http://www.w3.org/1999/xlink" version="1.1"><rect x="0" y="0" width="900" height="600" fill="#001220"></rect><defs><linearGradient id="grad1_0" x1="33.3%" y1="100%" x2="100%" y2="0%"><stop offset="20%" stop-color="#fbae3c" stop-opacity="1"></stop><stop offset="80%" stop-color="#fbae3c" stop-opacity="1"></stop></linearGradient></defs><defs><linearGradient id="grad1_1" x1="33.3%" y1="100%" x2="100%" y2="0%"><stop offset="20%" stop-color="#fbae3c" stop-opacity="1"></stop><stop offset="80%" stop-color="#e1685e" stop-opacity="1"></stop></linearGradient></defs><defs><linearGradient id="grad1_2" x1="33.3%" y1="100%" x2="100%" y2="0%"><stop offset="20%" stop-color="#96446e" stop-opacity="1"></stop><stop offset="80%" stop-color="#e1685e" stop-opacity="1"></stop></linearGradient></defs><defs><linearGradient id="grad1_3" x1="33.3%" y1="100%" x2="100%" y2="0%"><stop offset="20%" stop-color="#96446e" stop-opacity="1"></stop><stop offset="80%" stop-color="#3d3056" stop-opacity="1"></stop></linearGradient></defs><defs><linearGradient id="grad1_4" x1="33.3%" y1="100%" x2="100%" y2="0%"><stop offset="20%" stop-color="#001220" stop-opacity="1"></stop><stop offset="80%" stop-color="#3d3056" stop-opacity="1"></stop></linearGradient></defs><defs><linearGradient id="grad2_0" x1="0%" y1="100%" x2="66.7%" y2="0%"><stop offset="20%" stop-color="#fbae3c" stop-opacity="1"></stop><stop offset="80%" stop-color="#fbae3c" stop-opacity="1"></stop></linearGradient></defs><defs><linearGradient id="grad2_1" x1="0%" y1="100%" x2="66.7%" y2="0%"><stop offset="20%" stop-color="#e1685e" stop-opacity="1"></stop><stop offset="80%" stop-color="#fbae3c" stop-opacity="1"></stop></linearGradient></defs><defs><linearGradient id="grad2_2" x1="0%" y1="100%" x2="66.7%" y2="0%"><stop offset="20%" stop-color="#e1685e" stop-opacity="1"></stop><stop offset="80%" stop-color="#96446e" stop-opacity="1"></stop></linearGradient></defs><defs><linearGradient id="grad2_3" x1="0%" y1="100%" x2="66.7%" y2="0%"><stop offset="20%" stop-color="#3d3056" stop-opacity="1"></stop><stop offset="80%" stop-color="#96446e" stop-opacity="1"></stop></linearGradient></defs><defs><linearGradient id="grad2_4" x1="0%" y1="100%" x2="66.7%" y2="0%"><stop offset="20%" stop-color="#3d3056" stop-opacity="1"></stop><stop offset="80%" stop-color="#001220" stop-opacity="1"></stop></linearGradient></defs><g transform="translate(900, 600)"><path d="M-324.5 0C-294.5 -24.9 -264.5 -49.9 -259.6 -84.4C-254.8 -118.9 -275.2 -162.9 -262.5 -190.7C-249.8 -218.5 -204 -230.1 -166.9 -229.8C-129.8 -229.4 -101.5 -217.3 -75.1 -231.1C-48.7 -244.9 -24.4 -284.7 0 -324.5L0 0Z" fill="#18223c"></path><path d="M-259.6 0C-235.6 -19.9 -211.6 -39.9 -207.7 -67.5C-203.9 -95.1 -220.2 -130.3 -210 -152.6C-199.9 -174.8 -163.2 -184.1 -133.5 -183.8C-103.9 -183.6 -81.2 -173.8 -60.1 -184.9C-39 -195.9 -19.5 -227.8 0 -259.6L0 0Z" fill="#683a67"></path><path d="M-194.7 0C-176.7 -15 -158.7 -29.9 -155.8 -50.6C-152.9 -71.3 -165.1 -97.8 -157.5 -114.4C-149.9 -131.1 -122.4 -138 -100.2 -137.9C-77.9 -137.7 -60.9 -130.4 -45.1 -138.7C-29.2 -147 -14.6 -170.8 0 -194.7L0 0Z" fill="#c0526a"></path><path d="M-129.8 0C-117.8 -10 -105.8 -19.9 -103.9 -33.7C-101.9 -47.5 -110.1 -65.2 -105 -76.3C-99.9 -87.4 -81.6 -92 -66.8 -91.9C-51.9 -91.8 -40.6 -86.9 -30 -92.4C-19.5 -98 -9.7 -113.9 0 -129.8L0 0Z" fill="#f6884d"></path><path d="M-64.9 0C-58.9 -5 -52.9 -10 -51.9 -16.9C-51 -23.8 -55 -32.6 -52.5 -38.1C-50 -43.7 -40.8 -46 -33.4 -46C-26 -45.9 -20.3 -43.5 -15 -46.2C-9.7 -49 -4.9 -56.9 0 -64.9L0 0Z" fill="#fbae3c"></path></g><g transform="translate(0, 0)"><path d="M324.5 0C293.8 25.8 263.1 51.6 249.2 81C235.3 110.3 238.2 143.2 223.3 162.2C208.4 181.3 175.7 186.5 154.6 212.8C133.5 239.1 124.1 286.5 100.3 308.6C76.5 330.8 38.2 327.6 0 324.5L0 0Z" fill="#18223c"></path><path d="M259.6 0C235 20.6 210.5 41.3 199.3 64.8C188.2 88.2 190.6 114.6 178.6 129.8C166.7 145 140.5 149.2 123.7 170.2C106.8 191.3 99.3 229.2 80.2 246.9C61.2 264.6 30.6 262.1 0 259.6L0 0Z" fill="#683a67"></path><path d="M194.7 0C176.3 15.5 157.8 31 149.5 48.6C141.2 66.2 142.9 85.9 134 97.3C125 108.8 105.4 111.9 92.8 127.7C80.1 143.4 74.5 171.9 60.2 185.2C45.9 198.5 22.9 196.6 0 194.7L0 0Z" fill="#c0526a"></path><path d="M129.8 0C117.5 10.3 105.2 20.6 99.7 32.4C94.1 44.1 95.3 57.3 89.3 64.9C83.4 72.5 70.3 74.6 61.8 85.1C53.4 95.6 49.6 114.6 40.1 123.4C30.6 132.3 15.3 131.1 0 129.8L0 0Z" fill="#f6884d"></path><path d="M64.9 0C58.8 5.2 52.6 10.3 49.8 16.2C47.1 22.1 47.6 28.6 44.7 32.4C41.7 36.3 35.1 37.3 30.9 42.6C26.7 47.8 24.8 57.3 20.1 61.7C15.3 66.2 7.6 65.5 0 64.9L0 0Z" fill="#fbae3c"></path></g></svg>