<svg id="visual" viewBox="0 0 900 600" width="900" height="600" xmlns="http://www.w3.org/2000/svg" xmlns:xlink="http://www.w3.org/1999/xlink" version="1.1"><rect width="900" height="600" fill="#001220"></rect><g><g transform="translate(346 454)"><path d="M127.6 -44.5C143.2 6.5 118.4 67.6 76 96.4C33.6 125.3 -26.2 121.9 -72 90.6C-117.8 59.4 -149.4 0.2 -135.1 -49C-120.8 -98.3 -60.4 -137.7 -2.2 -137C56 -136.2 112 -95.4 127.6 -44.5Z" stroke="#F7760E" fill="none" stroke-width="20"></path></g><g transform="translate(886 152)"><path d="M105.1 -38.9C119.3 9.8 102.5 63.9 65.1 91.5C27.7 119.1 -30.3 120.3 -69.3 92.6C-108.3 64.9 -128.4 8.3 -113.7 -40.9C-99 -90.2 -49.5 -132.1 -2 -131.5C45.4 -130.8 90.8 -87.5 105.1 -38.9Z" stroke="#F7760E" fill="none" stroke-width="20"></path></g></g></svg>