<svg id="visual" viewBox="0 0 900 600" width="900" height="600" xmlns="http://www.w3.org/2000/svg" xmlns:xlink="http://www.w3.org/1999/xlink" version="1.1"><rect x="0" y="0" width="900" height="600" fill="#001220"></rect><defs><linearGradient id="grad1_0" x1="33.3%" y1="0%" x2="100%" y2="100%"><stop offset="20%" stop-color="#fbae3c" stop-opacity="1"></stop><stop offset="80%" stop-color="#fbae3c" stop-opacity="1"></stop></linearGradient></defs><defs><linearGradient id="grad1_1" x1="33.3%" y1="0%" x2="100%" y2="100%"><stop offset="20%" stop-color="#fbae3c" stop-opacity="1"></stop><stop offset="80%" stop-color="#f48350" stop-opacity="1"></stop></linearGradient></defs><defs><linearGradient id="grad1_2" x1="33.3%" y1="0%" x2="100%" y2="100%"><stop offset="20%" stop-color="#d96162" stop-opacity="1"></stop><stop offset="80%" stop-color="#f48350" stop-opacity="1"></stop></linearGradient></defs><defs><linearGradient id="grad1_3" x1="33.3%" y1="0%" x2="100%" y2="100%"><stop offset="20%" stop-color="#d96162" stop-opacity="1"></stop><stop offset="80%" stop-color="#af4b6d" stop-opacity="1"></stop></linearGradient></defs><defs><linearGradient id="grad1_4" x1="33.3%" y1="0%" x2="100%" y2="100%"><stop offset="20%" stop-color="#7c3e6b" stop-opacity="1"></stop><stop offset="80%" stop-color="#af4b6d" stop-opacity="1"></stop></linearGradient></defs><defs><linearGradient id="grad1_5" x1="33.3%" y1="0%" x2="100%" y2="100%"><stop offset="20%" stop-color="#7c3e6b" stop-opacity="1"></stop><stop offset="80%" stop-color="#49335c" stop-opacity="1"></stop></linearGradient></defs><defs><linearGradient id="grad1_6" x1="33.3%" y1="0%" x2="100%" y2="100%"><stop offset="20%" stop-color="#1d2540" stop-opacity="1"></stop><stop offset="80%" stop-color="#49335c" stop-opacity="1"></stop></linearGradient></defs><defs><linearGradient id="grad1_7" x1="33.3%" y1="0%" x2="100%" y2="100%"><stop offset="20%" stop-color="#1d2540" stop-opacity="1"></stop><stop offset="80%" stop-color="#001220" stop-opacity="1"></stop></linearGradient></defs><defs><linearGradient id="grad2_0" x1="0%" y1="0%" x2="66.7%" y2="100%"><stop offset="20%" stop-color="#fbae3c" stop-opacity="1"></stop><stop offset="80%" stop-color="#fbae3c" stop-opacity="1"></stop></linearGradient></defs><defs><linearGradient id="grad2_1" x1="0%" y1="0%" x2="66.7%" y2="100%"><stop offset="20%" stop-color="#f48350" stop-opacity="1"></stop><stop offset="80%" stop-color="#fbae3c" stop-opacity="1"></stop></linearGradient></defs><defs><linearGradient id="grad2_2" x1="0%" y1="0%" x2="66.7%" y2="100%"><stop offset="20%" stop-color="#f48350" stop-opacity="1"></stop><stop offset="80%" stop-color="#d96162" stop-opacity="1"></stop></linearGradient></defs><defs><linearGradient id="grad2_3" x1="0%" y1="0%" x2="66.7%" y2="100%"><stop offset="20%" stop-color="#af4b6d" stop-opacity="1"></stop><stop offset="80%" stop-color="#d96162" stop-opacity="1"></stop></linearGradient></defs><defs><linearGradient id="grad2_4" x1="0%" y1="0%" x2="66.7%" y2="100%"><stop offset="20%" stop-color="#af4b6d" stop-opacity="1"></stop><stop offset="80%" stop-color="#7c3e6b" stop-opacity="1"></stop></linearGradient></defs><defs><linearGradient id="grad2_5" x1="0%" y1="0%" x2="66.7%" y2="100%"><stop offset="20%" stop-color="#49335c" stop-opacity="1"></stop><stop offset="80%" stop-color="#7c3e6b" stop-opacity="1"></stop></linearGradient></defs><defs><linearGradient id="grad2_6" x1="0%" y1="0%" x2="66.7%" y2="100%"><stop offset="20%" stop-color="#49335c" stop-opacity="1"></stop><stop offset="80%" stop-color="#1d2540" stop-opacity="1"></stop></linearGradient></defs><defs><linearGradient id="grad2_7" x1="0%" y1="0%" x2="66.7%" y2="100%"><stop offset="20%" stop-color="#001220" stop-opacity="1"></stop><stop offset="80%" stop-color="#1d2540" stop-opacity="1"></stop></linearGradient></defs><g transform="translate(900, 0)"><path d="M0 324.5C-35.2 301.1 -70.4 277.7 -109.4 264.2C-148.5 250.7 -191.5 247.1 -225.6 225.6C-259.6 204.1 -284.8 164.7 -299.8 124.2C-314.8 83.6 -319.7 41.8 -324.5 0L0 0Z" fill="#0c1c30"></path><path d="M0 283.9C-30.8 263.5 -61.6 243 -95.8 231.2C-130 219.4 -167.6 216.2 -197.4 197.4C-227.2 178.6 -249.2 144.2 -262.3 108.7C-275.5 73.2 -279.7 36.6 -283.9 0L0 0Z" fill="#312c4f"></path><path d="M0 243.4C-26.4 225.8 -52.8 208.3 -82.1 198.2C-111.4 188 -143.6 185.3 -169.2 169.2C-194.7 153.1 -213.6 123.6 -224.8 93.1C-236.1 62.7 -239.7 31.4 -243.4 0L0 0Z" fill="#623965"></path><path d="M0 202.8C-22 188.2 -44 173.6 -68.4 165.1C-92.8 156.7 -119.7 154.4 -141 141C-162.3 127.5 -178 103 -187.4 77.6C-196.8 52.3 -199.8 26.1 -202.8 0L0 0Z" fill="#96446e"></path><path d="M0 162.2C-17.6 150.6 -35.2 138.9 -54.7 132.1C-74.3 125.4 -95.8 123.5 -112.8 112.8C-129.8 102 -142.4 82.4 -149.9 62.1C-157.4 41.8 -159.8 20.9 -162.2 0L0 0Z" fill="#c55469"></path><path d="M0 121.7C-13.2 112.9 -26.4 104.2 -41 99.1C-55.7 94 -71.8 92.6 -84.6 84.6C-97.4 76.5 -106.8 61.8 -112.4 46.6C-118.1 31.4 -119.9 15.7 -121.7 0L0 0Z" fill="#e9705a"></path><path d="M0 81.1C-8.8 75.3 -17.6 69.4 -27.4 66.1C-37.1 62.7 -47.9 61.8 -56.4 56.4C-64.9 51 -71.2 41.2 -74.9 31C-78.7 20.9 -79.9 10.5 -81.1 0L0 0Z" fill="#fa9845"></path><path d="M0 40.6C-4.4 37.6 -8.8 34.7 -13.7 33C-18.6 31.3 -23.9 30.9 -28.2 28.2C-32.5 25.5 -35.6 20.6 -37.5 15.5C-39.4 10.5 -40 5.2 -40.6 0L0 0Z" fill="#fbae3c"></path></g><g transform="translate(0, 600)"><path d="M0 -324.5C46.2 -324.4 92.5 -324.3 124.2 -299.8C155.9 -275.3 173.1 -226.5 190.9 -190.9C208.7 -155.3 227.1 -132.9 249.4 -103.3C271.8 -73.7 298.2 -36.9 324.5 0L0 0Z" fill="#0c1c30"></path><path d="M0 -283.9C40.4 -283.8 80.9 -283.7 108.7 -262.3C136.4 -240.9 151.5 -198.2 167.1 -167.1C182.6 -135.9 198.7 -116.3 218.3 -90.4C237.8 -64.5 260.9 -32.2 283.9 0L0 0Z" fill="#312c4f"></path><path d="M0 -243.4C34.7 -243.3 69.3 -243.2 93.1 -224.8C116.9 -206.5 129.8 -169.9 143.2 -143.2C156.5 -116.5 170.3 -99.7 187.1 -77.5C203.9 -55.3 223.6 -27.6 243.4 0L0 0Z" fill="#623965"></path><path d="M0 -202.8C28.9 -202.7 57.8 -202.7 77.6 -187.4C97.4 -172.1 108.2 -141.6 119.3 -119.3C130.4 -97.1 141.9 -83.1 155.9 -64.6C169.9 -46.1 186.3 -23 202.8 0L0 0Z" fill="#96446e"></path><path d="M0 -162.2C23.1 -162.2 46.2 -162.1 62.1 -149.9C78 -137.7 86.6 -113.3 95.5 -95.5C104.4 -77.7 113.5 -66.5 124.7 -51.7C135.9 -36.9 149.1 -18.4 162.2 0L0 0Z" fill="#c55469"></path><path d="M0 -121.7C17.3 -121.6 34.7 -121.6 46.6 -112.4C58.5 -103.2 64.9 -84.9 71.6 -71.6C78.3 -58.2 85.2 -49.9 93.5 -38.7C101.9 -27.6 111.8 -13.8 121.7 0L0 0Z" fill="#e9705a"></path><path d="M0 -81.1C11.6 -81.1 23.1 -81.1 31 -74.9C39 -68.8 43.3 -56.6 47.7 -47.7C52.2 -38.8 56.8 -33.2 62.4 -25.8C68 -18.4 74.5 -9.2 81.1 0L0 0Z" fill="#fa9845"></path><path d="M0 -40.6C5.8 -40.5 11.6 -40.5 15.5 -37.5C19.5 -34.4 21.6 -28.3 23.9 -23.9C26.1 -19.4 28.4 -16.6 31.2 -12.9C34 -9.2 37.3 -4.6 40.6 0L0 0Z" fill="#fbae3c"></path></g></svg>