<svg id="visual" viewBox="0 0 900 600" width="900" height="600" xmlns="http://www.w3.org/2000/svg" xmlns:xlink="http://www.w3.org/1999/xlink" version="1.1"><rect x="0" y="0" width="900" height="600" fill="#140021"></rect><path d="M554 0L319 0L319 40L545 40L545 80L629 80L629 120L377 120L377 160L685 160L685 200L471 200L471 240L681 240L681 280L465 280L465 320L692 320L692 360L454 360L454 400L315 400L315 440L373 440L373 480L491 480L491 520L506 520L506 560L679 560L679 600L0 600L0 560L0 560L0 520L0 520L0 480L0 480L0 440L0 440L0 400L0 400L0 360L0 360L0 320L0 320L0 280L0 280L0 240L0 240L0 200L0 200L0 160L0 160L0 120L0 120L0 80L0 80L0 40L0 40L0 0L0 0Z" fill="#9900ff"></path><path d="M396 0L539 0L539 40L382 40L382 80L380 80L380 120L322 120L322 160L447 160L447 200L471 200L471 240L619 240L619 280L407 280L407 320L306 320L306 360L581 360L581 400L293 400L293 440L413 440L413 480L263 480L263 520L327 520L327 560L531 560L531 600L0 600L0 560L0 560L0 520L0 520L0 480L0 480L0 440L0 440L0 400L0 400L0 360L0 360L0 320L0 320L0 280L0 280L0 240L0 240L0 200L0 200L0 160L0 160L0 120L0 120L0 80L0 80L0 40L0 40L0 0L0 0Z" fill="#8e00ec"></path><path d="M494 0L430 0L430 40L217 40L217 80L335 80L335 120L415 120L415 160L499 160L499 200L298 200L298 240L528 240L528 280L361 280L361 320L179 320L179 360L440 360L440 400L415 400L415 440L444 440L444 480L187 480L187 520L441 520L441 560L351 560L351 600L0 600L0 560L0 560L0 520L0 520L0 480L0 480L0 440L0 440L0 400L0 400L0 360L0 360L0 320L0 320L0 280L0 280L0 240L0 240L0 200L0 200L0 160L0 160L0 120L0 120L0 80L0 80L0 40L0 40L0 0L0 0Z" fill="#8200d9"></path><path d="M339 0L416 0L416 40L343 40L343 80L133 80L133 120L132 120L132 160L161 160L161 200L334 200L334 240L424 240L424 280L413 280L413 320L241 320L241 360L374 360L374 400L131 400L131 440L253 440L253 480L233 480L233 520L237 520L237 560L382 560L382 600L0 600L0 560L0 560L0 520L0 520L0 480L0 480L0 440L0 440L0 400L0 400L0 360L0 360L0 320L0 320L0 280L0 280L0 240L0 240L0 200L0 200L0 160L0 160L0 120L0 120L0 80L0 80L0 40L0 40L0 0L0 0Z" fill="#7700c6"></path><path d="M208 0L278 0L278 40L242 40L242 80L220 80L220 120L216 120L216 160L183 160L183 200L228 200L228 240L205 240L205 280L272 280L272 320L181 320L181 360L263 360L263 400L186 400L186 440L219 440L219 480L252 480L252 520L219 520L219 560L181 560L181 600L0 600L0 560L0 560L0 520L0 520L0 480L0 480L0 440L0 440L0 400L0 400L0 360L0 360L0 320L0 320L0 280L0 280L0 240L0 240L0 200L0 200L0 160L0 160L0 120L0 120L0 80L0 80L0 40L0 40L0 0L0 0Z" fill="#6c00b4"></path><path d="M124 0L158 0L158 40L76 40L76 80L146 80L146 120L108 120L108 160L155 160L155 200L118 200L118 240L215 240L215 280L170 280L170 320L127 320L127 360L249 360L249 400L75 400L75 440L102 440L102 480L214 480L214 520L71 520L71 560L250 560L250 600L0 600L0 560L0 560L0 520L0 520L0 480L0 480L0 440L0 440L0 400L0 400L0 360L0 360L0 320L0 320L0 280L0 280L0 240L0 240L0 200L0 200L0 160L0 160L0 120L0 120L0 80L0 80L0 40L0 40L0 0L0 0Z" fill="#6100a2"></path><path d="M72 0L162 0L162 40L85 40L85 80L151 80L151 120L154 120L154 160L122 160L122 200L69 200L69 240L72 240L72 280L140 280L140 320L122 320L122 360L173 360L173 400L114 400L114 440L115 440L115 480L42 480L42 520L169 520L169 560L165 560L165 600L0 600L0 560L0 560L0 520L0 520L0 480L0 480L0 440L0 440L0 400L0 400L0 360L0 360L0 320L0 320L0 280L0 280L0 240L0 240L0 200L0 200L0 160L0 160L0 120L0 120L0 80L0 80L0 40L0 40L0 0L0 0Z" fill="#560090"></path></svg>