<svg id="visual" viewBox="0 0 900 600" width="900" height="600" xmlns="http://www.w3.org/2000/svg" xmlns:xlink="http://www.w3.org/1999/xlink" version="1.1"><path d="M0 133L60 133L60 229L120 229L120 163L180 163L180 139L240 139L240 61L300 61L300 61L360 61L360 127L420 127L420 79L480 79L480 91L540 91L540 109L600 109L600 133L660 133L660 241L720 241L720 169L780 169L780 103L840 103L840 85L900 85L900 145L900 0L900 0L840 0L840 0L780 0L780 0L720 0L720 0L660 0L660 0L600 0L600 0L540 0L540 0L480 0L480 0L420 0L420 0L360 0L360 0L300 0L300 0L240 0L240 0L180 0L180 0L120 0L120 0L60 0L60 0L0 0Z" fill="#002233"></path><path d="M0 205L60 205L60 349L120 349L120 289L180 289L180 157L240 157L240 205L300 205L300 193L360 193L360 265L420 265L420 211L480 211L480 229L540 229L540 199L600 199L600 199L660 199L660 265L720 265L720 289L780 289L780 169L840 169L840 223L900 223L900 295L900 143L900 83L840 83L840 101L780 101L780 167L720 167L720 239L660 239L660 131L600 131L600 107L540 107L540 89L480 89L480 77L420 77L420 125L360 125L360 59L300 59L300 59L240 59L240 137L180 137L180 161L120 161L120 227L60 227L60 131L0 131Z" fill="#003154"></path><path d="M0 277L60 277L60 367L120 367L120 307L180 307L180 241L240 241L240 253L300 253L300 265L360 265L360 361L420 361L420 247L480 247L480 289L540 289L540 283L600 283L600 235L660 235L660 337L720 337L720 391L780 391L780 241L840 241L840 283L900 283L900 325L900 293L900 221L840 221L840 167L780 167L780 287L720 287L720 263L660 263L660 197L600 197L600 197L540 197L540 227L480 227L480 209L420 209L420 263L360 263L360 191L300 191L300 203L240 203L240 155L180 155L180 287L120 287L120 347L60 347L60 203L0 203Z" fill="#003f77"></path><path d="M0 325L60 325L60 457L120 457L120 343L180 343L180 337L240 337L240 301L300 301L300 301L360 301L360 421L420 421L420 349L480 349L480 355L540 355L540 319L600 319L600 367L660 367L660 439L720 439L720 415L780 415L780 283L840 283L840 355L900 355L900 343L900 323L900 281L840 281L840 239L780 239L780 389L720 389L720 335L660 335L660 233L600 233L600 281L540 281L540 287L480 287L480 245L420 245L420 359L360 359L360 263L300 263L300 251L240 251L240 239L180 239L180 305L120 305L120 365L60 365L60 275L0 275Z" fill="#004b99"></path><path d="M0 457L60 457L60 517L120 517L120 565L180 565L180 457L240 457L240 487L300 487L300 511L360 511L360 529L420 529L420 499L480 499L480 487L540 487L540 499L600 499L600 559L660 559L660 541L720 541L720 565L780 565L780 481L840 481L840 481L900 481L900 493L900 341L900 353L840 353L840 281L780 281L780 413L720 413L720 437L660 437L660 365L600 365L600 317L540 317L540 353L480 353L480 347L420 347L420 419L360 419L360 299L300 299L300 299L240 299L240 335L180 335L180 341L120 341L120 455L60 455L60 323L0 323Z" fill="#0055bb"></path><path d="M0 535L60 535L60 589L120 589L120 589L180 589L180 535L240 535L240 529L300 529L300 583L360 583L360 559L420 559L420 547L480 547L480 523L540 523L540 553L600 553L600 589L660 589L660 553L720 553L720 589L780 589L780 523L840 523L840 535L900 535L900 541L900 491L900 479L840 479L840 479L780 479L780 563L720 563L720 539L660 539L660 557L600 557L600 497L540 497L540 485L480 485L480 497L420 497L420 527L360 527L360 509L300 509L300 485L240 485L240 455L180 455L180 563L120 563L120 515L60 515L60 455L0 455Z" fill="#005edd"></path><path d="M0 601L60 601L60 601L120 601L120 601L180 601L180 601L240 601L240 601L300 601L300 601L360 601L360 601L420 601L420 601L480 601L480 601L540 601L540 601L600 601L600 601L660 601L660 601L720 601L720 601L780 601L780 601L840 601L840 601L900 601L900 601L900 539L900 533L840 533L840 521L780 521L780 587L720 587L720 551L660 551L660 587L600 587L600 551L540 551L540 521L480 521L480 545L420 545L420 557L360 557L360 581L300 581L300 527L240 527L240 533L180 533L180 587L120 587L120 587L60 587L60 533L0 533Z" fill="#0066ff"></path></svg>