<svg id="visual" viewBox="0 0 900 600" width="900" height="600" xmlns="http://www.w3.org/2000/svg" xmlns:xlink="http://www.w3.org/1999/xlink" version="1.1"><g stroke-width="1" stroke-linejoin="bevel"><path d="M409 289L399 256L398 276Z" fill="#005cd6" stroke="#005cd6"></path><path d="M409 289L457 223L399 256Z" fill="#002b46" stroke="#002b46"></path><path d="M398 276L335 337L409 289Z" fill="#005cd6" stroke="#005cd6"></path><path d="M303 288L335 337L398 276Z" fill="#00345b" stroke="#00345b"></path><path d="M457 223L365 165L399 256Z" fill="#004b99" stroke="#004b99"></path><path d="M300 253L303 288L398 276Z" fill="#005cd6" stroke="#005cd6"></path><path d="M552 281L520 203L457 223Z" fill="#002b46" stroke="#002b46"></path><path d="M457 223L475 139L365 165Z" fill="#005cd6" stroke="#005cd6"></path><path d="M300 253L398 276L399 256Z" fill="#0057c2" stroke="#0057c2"></path><path d="M314 177L300 253L399 256Z" fill="#0066ff" stroke="#0066ff"></path><path d="M335 337L411 392L409 289Z" fill="#0057c2" stroke="#0057c2"></path><path d="M409 289L552 281L457 223Z" fill="#004485" stroke="#004485"></path><path d="M411 392L454 394L409 289Z" fill="#004b99" stroke="#004b99"></path><path d="M454 394L552 281L409 289Z" fill="#0061eb" stroke="#0061eb"></path><path d="M520 203L475 139L457 223Z" fill="#0066ff" stroke="#0066ff"></path><path d="M363 111L314 177L365 165Z" fill="#00345b" stroke="#00345b"></path><path d="M365 165L314 177L399 256Z" fill="#002233" stroke="#002233"></path><path d="M411 392L449 422L454 394Z" fill="#0066ff" stroke="#0066ff"></path><path d="M454 394L496 413L552 281Z" fill="#0066ff" stroke="#0066ff"></path><path d="M423 486L449 422L411 392Z" fill="#005cd6" stroke="#005cd6"></path><path d="M449 422L496 413L454 394Z" fill="#004485" stroke="#004485"></path><path d="M475 139L363 111L365 165Z" fill="#003c70" stroke="#003c70"></path><path d="M297 439L341 416L335 337Z" fill="#003c70" stroke="#003c70"></path><path d="M335 337L341 416L411 392Z" fill="#002233" stroke="#002233"></path><path d="M314 177L254 217L300 253Z" fill="#003c70" stroke="#003c70"></path><path d="M300 253L254 217L303 288Z" fill="#0051ad" stroke="#0051ad"></path><path d="M211 333L297 439L335 337Z" fill="#0057c2" stroke="#0057c2"></path><path d="M190 217L254 217L239 109Z" fill="#004b99" stroke="#004b99"></path><path d="M552 281L595 220L520 203Z" fill="#00345b" stroke="#00345b"></path><path d="M520 203L524 110L475 139Z" fill="#004485" stroke="#004485"></path><path d="M648 241L595 220L552 281Z" fill="#0057c2" stroke="#0057c2"></path><path d="M449 422L498 436L496 413Z" fill="#00345b" stroke="#00345b"></path><path d="M496 413L599 327L552 281Z" fill="#002233" stroke="#002233"></path><path d="M423 486L498 436L449 422Z" fill="#00345b" stroke="#00345b"></path><path d="M612 410L599 327L496 413Z" fill="#0066ff" stroke="#0066ff"></path><path d="M614 171L524 110L520 203Z" fill="#005cd6" stroke="#005cd6"></path><path d="M475 139L428 64L363 111Z" fill="#0061eb" stroke="#0061eb"></path><path d="M524 110L428 64L475 139Z" fill="#002b46" stroke="#002b46"></path><path d="M211 333L335 337L303 288Z" fill="#0051ad" stroke="#0051ad"></path><path d="M341 416L423 486L411 392Z" fill="#0051ad" stroke="#0051ad"></path><path d="M648 241L614 171L595 220Z" fill="#002b46" stroke="#002b46"></path><path d="M595 220L614 171L520 203Z" fill="#0057c2" stroke="#0057c2"></path><path d="M339 510L423 486L341 416Z" fill="#005cd6" stroke="#005cd6"></path><path d="M254 217L211 333L303 288Z" fill="#004b99" stroke="#004b99"></path><path d="M599 327L648 241L552 281Z" fill="#0061eb" stroke="#0061eb"></path><path d="M599 327L647 314L648 241Z" fill="#004485" stroke="#004485"></path><path d="M612 410L647 314L599 327Z" fill="#004485" stroke="#004485"></path><path d="M239 109L254 217L314 177Z" fill="#00345b" stroke="#00345b"></path><path d="M254 217L190 217L211 333Z" fill="#002233" stroke="#002233"></path><path d="M239 109L314 177L270 64Z" fill="#002b46" stroke="#002b46"></path><path d="M578 478L612 410L498 436Z" fill="#002b46" stroke="#002b46"></path><path d="M498 436L612 410L496 413Z" fill="#004485" stroke="#004485"></path><path d="M568 39L512 45L524 110Z" fill="#0066ff" stroke="#0066ff"></path><path d="M524 110L512 45L428 64Z" fill="#00345b" stroke="#00345b"></path><path d="M270 64L314 177L363 111Z" fill="#004b99" stroke="#004b99"></path><path d="M423 486L491 504L498 436Z" fill="#0051ad" stroke="#0051ad"></path><path d="M378 0L270 64L363 111Z" fill="#0057c2" stroke="#0057c2"></path><path d="M378 0L363 111L428 64Z" fill="#004485" stroke="#004485"></path><path d="M297 439L339 510L341 416Z" fill="#0057c2" stroke="#0057c2"></path><path d="M423 486L462 600L491 504Z" fill="#002233" stroke="#002233"></path><path d="M264 474L339 510L297 439Z" fill="#005cd6" stroke="#005cd6"></path><path d="M189 385L264 474L297 439Z" fill="#0066ff" stroke="#0066ff"></path><path d="M171 344L189 385L211 333Z" fill="#004b99" stroke="#004b99"></path><path d="M211 333L189 385L297 439Z" fill="#0051ad" stroke="#0051ad"></path><path d="M119 268L171 344L211 333Z" fill="#0061eb" stroke="#0061eb"></path><path d="M491 504L578 478L498 436Z" fill="#003c70" stroke="#003c70"></path><path d="M512 45L412 0L428 64Z" fill="#0061eb" stroke="#0061eb"></path><path d="M412 0L378 0L428 64Z" fill="#002233" stroke="#002233"></path><path d="M654 111L568 39L524 110Z" fill="#0066ff" stroke="#0066ff"></path><path d="M512 45L537 0L412 0Z" fill="#0066ff" stroke="#0066ff"></path><path d="M654 111L524 110L614 171Z" fill="#002b46" stroke="#002b46"></path><path d="M684 137L614 171L648 241Z" fill="#00345b" stroke="#00345b"></path><path d="M684 137L654 111L614 171Z" fill="#003c70" stroke="#003c70"></path><path d="M245 0L210 72L270 64Z" fill="#0051ad" stroke="#0051ad"></path><path d="M270 64L210 72L239 109Z" fill="#005cd6" stroke="#005cd6"></path><path d="M239 109L153 96L190 217Z" fill="#0051ad" stroke="#0051ad"></path><path d="M190 217L119 268L211 333Z" fill="#005cd6" stroke="#005cd6"></path><path d="M585 0L537 0L568 39Z" fill="#002b46" stroke="#002b46"></path><path d="M568 39L537 0L512 45Z" fill="#0061eb" stroke="#0061eb"></path><path d="M771 203L684 137L648 241Z" fill="#00345b" stroke="#00345b"></path><path d="M668 0L585 0L568 39Z" fill="#002b46" stroke="#002b46"></path><path d="M378 0L281 0L270 64Z" fill="#002b46" stroke="#002b46"></path><path d="M484 600L589 519L491 504Z" fill="#004b99" stroke="#004b99"></path><path d="M491 504L589 519L578 478Z" fill="#0051ad" stroke="#0051ad"></path><path d="M578 478L664 449L612 410Z" fill="#0066ff" stroke="#0066ff"></path><path d="M612 410L692 404L647 314Z" fill="#005cd6" stroke="#005cd6"></path><path d="M117 156L119 268L190 217Z" fill="#0057c2" stroke="#0057c2"></path><path d="M171 344L121 424L189 385Z" fill="#004485" stroke="#004485"></path><path d="M589 519L664 449L578 478Z" fill="#005cd6" stroke="#005cd6"></path><path d="M647 314L753 339L648 241Z" fill="#004b99" stroke="#004b99"></path><path d="M664 449L692 404L612 410Z" fill="#0057c2" stroke="#0057c2"></path><path d="M192 507L263 536L264 474Z" fill="#0066ff" stroke="#0066ff"></path><path d="M264 474L263 536L339 510Z" fill="#005cd6" stroke="#005cd6"></path><path d="M335 600L462 600L423 486Z" fill="#0066ff" stroke="#0066ff"></path><path d="M192 507L264 474L189 385Z" fill="#003c70" stroke="#003c70"></path><path d="M668 0L568 39L654 111Z" fill="#0061eb" stroke="#0061eb"></path><path d="M141 0L153 96L210 72Z" fill="#00345b" stroke="#00345b"></path><path d="M210 72L153 96L239 109Z" fill="#002b46" stroke="#002b46"></path><path d="M281 0L245 0L270 64Z" fill="#003c70" stroke="#003c70"></path><path d="M153 96L117 156L190 217Z" fill="#0061eb" stroke="#0061eb"></path><path d="M78 189L94 278L119 268Z" fill="#004b99" stroke="#004b99"></path><path d="M119 268L94 278L171 344Z" fill="#003c70" stroke="#003c70"></path><path d="M121 424L192 507L189 385Z" fill="#005cd6" stroke="#005cd6"></path><path d="M335 600L423 486L339 510Z" fill="#002233" stroke="#002233"></path><path d="M462 600L484 600L491 504Z" fill="#003c70" stroke="#003c70"></path><path d="M801 405L753 339L692 404Z" fill="#005cd6" stroke="#005cd6"></path><path d="M692 404L753 339L647 314Z" fill="#003c70" stroke="#003c70"></path><path d="M60 407L121 424L171 344Z" fill="#003c70" stroke="#003c70"></path><path d="M270 600L335 600L263 536Z" fill="#004485" stroke="#004485"></path><path d="M263 536L335 600L339 510Z" fill="#003c70" stroke="#003c70"></path><path d="M624 600L644 538L589 519Z" fill="#004485" stroke="#004485"></path><path d="M589 519L644 538L664 449Z" fill="#003c70" stroke="#003c70"></path><path d="M664 449L712 469L692 404Z" fill="#0061eb" stroke="#0061eb"></path><path d="M59 168L78 189L117 156Z" fill="#002233" stroke="#002233"></path><path d="M117 156L78 189L119 268Z" fill="#004485" stroke="#004485"></path><path d="M644 538L712 469L664 449Z" fill="#002b46" stroke="#002b46"></path><path d="M121 424L175 522L192 507Z" fill="#004485" stroke="#004485"></path><path d="M192 507L175 522L263 536Z" fill="#002233" stroke="#002233"></path><path d="M799 255L771 203L648 241Z" fill="#0057c2" stroke="#0057c2"></path><path d="M719 41L668 0L654 111Z" fill="#0057c2" stroke="#0057c2"></path><path d="M60 407L105 430L121 424Z" fill="#00345b" stroke="#00345b"></path><path d="M121 424L105 430L175 522Z" fill="#0051ad" stroke="#0051ad"></path><path d="M60 407L171 344L94 278Z" fill="#004485" stroke="#004485"></path><path d="M719 41L654 111L684 137Z" fill="#004b99" stroke="#004b99"></path><path d="M753 339L784 314L648 241Z" fill="#0061eb" stroke="#0061eb"></path><path d="M801 405L784 314L753 339Z" fill="#005cd6" stroke="#005cd6"></path><path d="M195 600L270 600L263 536Z" fill="#002233" stroke="#002233"></path><path d="M644 538L720 486L712 469Z" fill="#0061eb" stroke="#0061eb"></path><path d="M712 469L801 405L692 404Z" fill="#002233" stroke="#002233"></path><path d="M774 143L719 41L684 137Z" fill="#0066ff" stroke="#0066ff"></path><path d="M771 203L774 143L684 137Z" fill="#004b99" stroke="#004b99"></path><path d="M861 113L774 143L900 189Z" fill="#0066ff" stroke="#0066ff"></path><path d="M64 112L59 168L117 156Z" fill="#002b46" stroke="#002b46"></path><path d="M78 189L0 264L94 278Z" fill="#0051ad" stroke="#0051ad"></path><path d="M64 112L117 156L153 96Z" fill="#004485" stroke="#004485"></path><path d="M784 314L799 255L648 241Z" fill="#002b46" stroke="#002b46"></path><path d="M245 0L141 0L210 72Z" fill="#0061eb" stroke="#0061eb"></path><path d="M0 302L60 407L94 278Z" fill="#003c70" stroke="#003c70"></path><path d="M47 531L110 600L175 522Z" fill="#002b46" stroke="#002b46"></path><path d="M484 600L624 600L589 519Z" fill="#002b46" stroke="#002b46"></path><path d="M644 538L711 600L720 486Z" fill="#00345b" stroke="#00345b"></path><path d="M82 0L64 112L153 96Z" fill="#002233" stroke="#002233"></path><path d="M821 45L712 0L719 41Z" fill="#002233" stroke="#002233"></path><path d="M719 41L712 0L668 0Z" fill="#0051ad" stroke="#0051ad"></path><path d="M110 600L195 600L175 522Z" fill="#0066ff" stroke="#0066ff"></path><path d="M175 522L195 600L263 536Z" fill="#005cd6" stroke="#005cd6"></path><path d="M842 457L801 405L720 486Z" fill="#003c70" stroke="#003c70"></path><path d="M720 486L801 405L712 469Z" fill="#0061eb" stroke="#0061eb"></path><path d="M784 314L847 339L799 255Z" fill="#003c70" stroke="#003c70"></path><path d="M0 146L0 264L59 168Z" fill="#0057c2" stroke="#0057c2"></path><path d="M59 168L0 264L78 189Z" fill="#003c70" stroke="#003c70"></path><path d="M0 264L0 302L94 278Z" fill="#0051ad" stroke="#0051ad"></path><path d="M801 405L847 339L784 314Z" fill="#003c70" stroke="#003c70"></path><path d="M861 113L821 45L774 143Z" fill="#0051ad" stroke="#0051ad"></path><path d="M141 0L82 0L153 96Z" fill="#003c70" stroke="#003c70"></path><path d="M64 112L0 146L59 168Z" fill="#004485" stroke="#004485"></path><path d="M0 61L0 146L64 112Z" fill="#0066ff" stroke="#0066ff"></path><path d="M624 600L711 600L644 538Z" fill="#004b99" stroke="#004b99"></path><path d="M801 405L842 457L847 339Z" fill="#00345b" stroke="#00345b"></path><path d="M711 600L719 600L720 486Z" fill="#0057c2" stroke="#0057c2"></path><path d="M0 302L0 415L60 407Z" fill="#002233" stroke="#002233"></path><path d="M0 482L47 531L105 430Z" fill="#0066ff" stroke="#0066ff"></path><path d="M47 531L175 522L105 430Z" fill="#0057c2" stroke="#0057c2"></path><path d="M774 143L771 203L900 189Z" fill="#0066ff" stroke="#0066ff"></path><path d="M774 143L821 45L719 41Z" fill="#004485" stroke="#004485"></path><path d="M0 482L105 430L60 407Z" fill="#0051ad" stroke="#0051ad"></path><path d="M849 559L842 457L720 486Z" fill="#002233" stroke="#002233"></path><path d="M900 211L771 203L799 255Z" fill="#004485" stroke="#004485"></path><path d="M900 284L799 255L847 339Z" fill="#005cd6" stroke="#005cd6"></path><path d="M47 531L93 600L110 600Z" fill="#002b46" stroke="#002b46"></path><path d="M82 0L0 61L64 112Z" fill="#004b99" stroke="#004b99"></path><path d="M0 415L0 482L60 407Z" fill="#002b46" stroke="#002b46"></path><path d="M47 531L0 600L93 600Z" fill="#004b99" stroke="#004b99"></path><path d="M900 344L900 284L847 339Z" fill="#004485" stroke="#004485"></path><path d="M900 284L900 211L799 255Z" fill="#004b99" stroke="#004b99"></path><path d="M842 457L900 344L847 339Z" fill="#0057c2" stroke="#0057c2"></path><path d="M900 211L900 189L771 203Z" fill="#0057c2" stroke="#0057c2"></path><path d="M900 110L821 45L861 113Z" fill="#002233" stroke="#002233"></path><path d="M900 0L834 0L821 45Z" fill="#003c70" stroke="#003c70"></path><path d="M821 45L834 0L712 0Z" fill="#004b99" stroke="#004b99"></path><path d="M82 0L0 0L0 61Z" fill="#002233" stroke="#002233"></path><path d="M0 482L0 535L47 531Z" fill="#004b99" stroke="#004b99"></path><path d="M719 600L799 600L720 486Z" fill="#004b99" stroke="#004b99"></path><path d="M842 457L900 483L900 344Z" fill="#00345b" stroke="#00345b"></path><path d="M900 189L900 110L861 113Z" fill="#0051ad" stroke="#0051ad"></path><path d="M799 600L849 559L720 486Z" fill="#002233" stroke="#002233"></path><path d="M900 515L900 483L842 457Z" fill="#003c70" stroke="#003c70"></path><path d="M0 535L0 600L47 531Z" fill="#00345b" stroke="#00345b"></path><path d="M849 559L900 515L842 457Z" fill="#0051ad" stroke="#0051ad"></path><path d="M900 110L900 0L821 45Z" fill="#005cd6" stroke="#005cd6"></path><path d="M799 600L900 600L849 559Z" fill="#004485" stroke="#004485"></path><path d="M849 559L900 600L900 515Z" fill="#004485" stroke="#004485"></path></g></svg>