<svg id="visual" viewBox="0 0 900 600" width="900" height="600" xmlns="http://www.w3.org/2000/svg" xmlns:xlink="http://www.w3.org/1999/xlink" version="1.1"><path d="M0 217L82 217L82 205L164 205L164 181L245 181L245 103L327 103L327 157L409 157L409 235L491 235L491 241L573 241L573 121L655 121L655 97L736 97L736 205L818 205L818 253L900 253L900 139L900 0L900 0L818 0L818 0L736 0L736 0L655 0L655 0L573 0L573 0L491 0L491 0L409 0L409 0L327 0L327 0L245 0L245 0L164 0L164 0L82 0L82 0L0 0Z" fill="#001220"></path><path d="M0 259L82 259L82 265L164 265L164 307L245 307L245 193L327 193L327 241L409 241L409 277L491 277L491 319L573 319L573 217L655 217L655 211L736 211L736 295L818 295L818 355L900 355L900 241L900 137L900 251L818 251L818 203L736 203L736 95L655 95L655 119L573 119L573 239L491 239L491 233L409 233L409 155L327 155L327 101L245 101L245 179L164 179L164 203L82 203L82 215L0 215Z" fill="#162142"></path><path d="M0 331L82 331L82 331L164 331L164 379L245 379L245 283L327 283L327 325L409 325L409 319L491 319L491 361L573 361L573 253L655 253L655 301L736 301L736 385L818 385L818 445L900 445L900 319L900 239L900 353L818 353L818 293L736 293L736 209L655 209L655 215L573 215L573 317L491 317L491 275L409 275L409 239L327 239L327 191L245 191L245 305L164 305L164 263L82 263L82 257L0 257Z" fill="#442a5d"></path><path d="M0 487L82 487L82 475L164 475L164 445L245 445L245 415L327 415L327 445L409 445L409 493L491 493L491 457L573 457L573 415L655 415L655 367L736 367L736 487L818 487L818 499L900 499L900 409L900 317L900 443L818 443L818 383L736 383L736 299L655 299L655 251L573 251L573 359L491 359L491 317L409 317L409 323L327 323L327 281L245 281L245 377L164 377L164 329L82 329L82 329L0 329Z" fill="#7b2968"></path><path d="M0 601L82 601L82 601L164 601L164 601L245 601L245 601L327 601L327 601L409 601L409 601L491 601L491 601L573 601L573 601L655 601L655 601L736 601L736 601L818 601L818 601L900 601L900 601L900 407L900 497L818 497L818 485L736 485L736 365L655 365L655 413L573 413L573 455L491 455L491 491L409 491L409 443L327 443L327 413L245 413L245 443L164 443L164 473L82 473L82 485L0 485Z" fill="#b0235f"></path></svg>