<svg id="visual" viewBox="0 0 900 600" width="900" height="600" xmlns="http://www.w3.org/2000/svg" xmlns:xlink="http://www.w3.org/1999/xlink" version="1.1"><path d="M0 31L90 31L90 115L180 115L180 115L270 115L270 103L360 103L360 55L450 55L450 37L540 37L540 37L630 37L630 67L720 67L720 67L810 67L810 31L900 31L900 97L900 0L900 0L810 0L810 0L720 0L720 0L630 0L630 0L540 0L540 0L450 0L450 0L360 0L360 0L270 0L270 0L180 0L180 0L90 0L90 0L0 0Z" fill="#b0235f"></path><path d="M0 97L90 97L90 175L180 175L180 211L270 211L270 133L360 133L360 97L450 97L450 109L540 109L540 85L630 85L630 193L720 193L720 151L810 151L810 151L900 151L900 211L900 95L900 29L810 29L810 65L720 65L720 65L630 65L630 35L540 35L540 35L450 35L450 53L360 53L360 101L270 101L270 113L180 113L180 113L90 113L90 29L0 29Z" fill="#7b2968"></path><path d="M0 265L90 265L90 259L180 259L180 361L270 361L270 283L360 283L360 163L450 163L450 235L540 235L540 133L630 133L630 349L720 349L720 271L810 271L810 307L900 307L900 253L900 209L900 149L810 149L810 149L720 149L720 191L630 191L630 83L540 83L540 107L450 107L450 95L360 95L360 131L270 131L270 209L180 209L180 173L90 173L90 95L0 95Z" fill="#442a5d"></path><path d="M0 427L90 427L90 337L180 337L180 445L270 445L270 493L360 493L360 319L450 319L450 457L540 457L540 229L630 229L630 505L720 505L720 481L810 481L810 433L900 433L900 379L900 251L900 305L810 305L810 269L720 269L720 347L630 347L630 131L540 131L540 233L450 233L450 161L360 161L360 281L270 281L270 359L180 359L180 257L90 257L90 263L0 263Z" fill="#162142"></path><path d="M0 601L90 601L90 601L180 601L180 601L270 601L270 601L360 601L360 601L450 601L450 601L540 601L540 601L630 601L630 601L720 601L720 601L810 601L810 601L900 601L900 601L900 377L900 431L810 431L810 479L720 479L720 503L630 503L630 227L540 227L540 455L450 455L450 317L360 317L360 491L270 491L270 443L180 443L180 335L90 335L90 425L0 425Z" fill="#001220"></path></svg>