<svg id="visual" viewBox="0 0 900 600" width="900" height="600" xmlns="http://www.w3.org/2000/svg" xmlns:xlink="http://www.w3.org/1999/xlink" version="1.1"><path d="M0 127L82 127L82 31L164 31L164 97L245 97L245 109L327 109L327 103L409 103L409 85L491 85L491 49L573 49L573 43L655 43L655 67L736 67L736 103L818 103L818 85L900 85L900 103L900 0L900 0L818 0L818 0L736 0L736 0L655 0L655 0L573 0L573 0L491 0L491 0L409 0L409 0L327 0L327 0L245 0L245 0L164 0L164 0L82 0L82 0L0 0Z" fill="#b0235f"></path><path d="M0 355L82 355L82 121L164 121L164 181L245 181L245 241L327 241L327 163L409 163L409 313L491 313L491 157L573 157L573 295L655 295L655 181L736 181L736 229L818 229L818 181L900 181L900 235L900 101L900 83L818 83L818 101L736 101L736 65L655 65L655 41L573 41L573 47L491 47L491 83L409 83L409 101L327 101L327 107L245 107L245 95L164 95L164 29L82 29L82 125L0 125Z" fill="#7b2968"></path><path d="M0 421L82 421L82 235L164 235L164 241L245 241L245 343L327 343L327 265L409 265L409 343L491 343L491 241L573 241L573 349L655 349L655 217L736 217L736 271L818 271L818 241L900 241L900 313L900 233L900 179L818 179L818 227L736 227L736 179L655 179L655 293L573 293L573 155L491 155L491 311L409 311L409 161L327 161L327 239L245 239L245 179L164 179L164 119L82 119L82 353L0 353Z" fill="#442a5d"></path><path d="M0 529L82 529L82 493L164 493L164 553L245 553L245 451L327 451L327 523L409 523L409 439L491 439L491 457L573 457L573 427L655 427L655 439L736 439L736 511L818 511L818 469L900 469L900 445L900 311L900 239L818 239L818 269L736 269L736 215L655 215L655 347L573 347L573 239L491 239L491 341L409 341L409 263L327 263L327 341L245 341L245 239L164 239L164 233L82 233L82 419L0 419Z" fill="#162142"></path><path d="M0 601L82 601L82 601L164 601L164 601L245 601L245 601L327 601L327 601L409 601L409 601L491 601L491 601L573 601L573 601L655 601L655 601L736 601L736 601L818 601L818 601L900 601L900 601L900 443L900 467L818 467L818 509L736 509L736 437L655 437L655 425L573 425L573 455L491 455L491 437L409 437L409 521L327 521L327 449L245 449L245 551L164 551L164 491L82 491L82 527L0 527Z" fill="#001220"></path></svg>