<svg id="visual" viewBox="0 0 900 600" width="900" height="600" xmlns="http://www.w3.org/2000/svg" xmlns:xlink="http://www.w3.org/1999/xlink" version="1.1"><path d="M0 349L90 349L90 145L180 145L180 289L270 289L270 217L360 217L360 265L450 265L450 181L540 181L540 259L630 259L630 97L720 97L720 151L810 151L810 97L900 97L900 343L900 0L900 0L810 0L810 0L720 0L720 0L630 0L630 0L540 0L540 0L450 0L450 0L360 0L360 0L270 0L270 0L180 0L180 0L90 0L90 0L0 0Z" fill="#0066ff"></path><path d="M0 397L90 397L90 331L180 331L180 529L270 529L270 307L360 307L360 307L450 307L450 379L540 379L540 427L630 427L630 295L720 295L720 319L810 319L810 313L900 313L900 397L900 341L900 95L810 95L810 149L720 149L720 95L630 95L630 257L540 257L540 179L450 179L450 263L360 263L360 215L270 215L270 287L180 287L180 143L90 143L90 347L0 347Z" fill="#004b99"></path><path d="M0 601L90 601L90 601L180 601L180 601L270 601L270 601L360 601L360 601L450 601L450 601L540 601L540 601L630 601L630 601L720 601L720 601L810 601L810 601L900 601L900 601L900 395L900 311L810 311L810 317L720 317L720 293L630 293L630 425L540 425L540 377L450 377L450 305L360 305L360 305L270 305L270 527L180 527L180 329L90 329L90 395L0 395Z" fill="#002233"></path></svg>